<svg xmlns="http://www.w3.org/2000/svg" xmlns:xlink="http://www.w3.org/1999/xlink" width="192" height="192" viewBox="0 0 192 192">
  <defs>
    <clipPath id="clip-Artboard_2">
      <rect width="192" height="192"/>
    </clipPath>
  </defs>
  <g id="Artboard_2" data-name="Artboard – 2" clip-path="url(#clip-Artboard_2)">
    <g id="Group_453" data-name="Group 453" transform="translate(-2260.001 -586.57)">
      <path id="Path_110" data-name="Path 110" d="M113.9,20.84a19.573,19.573,0,0,0-1.807-6.7,22.973,22.973,0,0,0-5.133-7.36,23.882,23.882,0,0,0-7.613-4.962A24.329,24.329,0,0,0,90.074,0h-.091a24.338,24.338,0,0,0-9.274,1.817,23.958,23.958,0,0,0-7.027,4.417S57,22.52,56.989,22.537L40.3,6.234a23.9,23.9,0,0,0-7.027-4.417A24.371,24.371,0,0,0,24,0h-.1a24.4,24.4,0,0,0-9.266,1.808,23.869,23.869,0,0,0-7.613,4.97A22.92,22.92,0,0,0,1.88,14.135,22.269,22.269,0,0,0,.017,22.213H0V64.759L14.015,60.34V22.593a9.406,9.406,0,0,1,2.9-6.242,10.008,10.008,0,0,1,7.01-2.821h.043a10.1,10.1,0,0,1,5.75,1.779L51.921,36.78a7.055,7.055,0,0,0,4.948,1.983h.24a7.068,7.068,0,0,0,4.952-1.985S78.29,20.2,84.265,15.311a8.985,8.985,0,0,1,5.749-1.779h.043a10.129,10.129,0,0,1,7.01,2.821,9.347,9.347,0,0,1,2.914,6.717V33.239l14-4.413v-6.5a7.2,7.2,0,0,0-.074-1" transform="translate(2299.012 628.408)"/>
      <path id="Path_111" data-name="Path 111" d="M113.9,20.84a19.573,19.573,0,0,0-1.807-6.7,22.973,22.973,0,0,0-5.133-7.36,23.882,23.882,0,0,0-7.613-4.962A24.329,24.329,0,0,0,90.074,0h-.091a24.338,24.338,0,0,0-9.274,1.817,23.958,23.958,0,0,0-7.027,4.417S57,22.52,56.989,22.537L40.3,6.234a23.9,23.9,0,0,0-7.027-4.417A24.371,24.371,0,0,0,24,0h-.1a24.4,24.4,0,0,0-9.266,1.808,23.869,23.869,0,0,0-7.613,4.97A22.92,22.92,0,0,0,1.88,14.135,22.269,22.269,0,0,0,.017,22.213H0V64.759L14.015,60.34V22.594a9.406,9.406,0,0,1,2.9-6.242,10.008,10.008,0,0,1,7.01-2.821h.043a10.1,10.1,0,0,1,5.75,1.779L51.921,36.78a7.055,7.055,0,0,0,4.948,1.983h.24a7.068,7.068,0,0,0,4.952-1.985S78.29,20.2,84.265,15.311a8.985,8.985,0,0,1,5.749-1.779h.043a10.129,10.129,0,0,1,7.01,2.821,9.347,9.347,0,0,1,2.914,6.717V33.239l14-4.413v-6.5a7.2,7.2,0,0,0-.074-1" transform="translate(2412.99 736.734) rotate(180)"/>
    </g>
  </g>
</svg>
