<svg xmlns="http://www.w3.org/2000/svg" xmlns:xlink="http://www.w3.org/1999/xlink" width="1482.863" height="2085.958" viewBox="0 0 1482.863 2085.958">
  <defs>
    <linearGradient id="linear-gradient" x1="0.1" y1="-0.069" x2="0.682" y2="1.083" gradientUnits="objectBoundingBox">
      <stop offset="0" stop-color="#06060e"/>
      <stop offset="0.213" stop-color="#e86a6a"/>
      <stop offset="0.571" stop-color="#786083"/>
      <stop offset="0.734" stop-color="#6c716e"/>
      <stop offset="1" stop-color="#11192e" stop-opacity="0"/>
    </linearGradient>
  </defs>
  <g id="Group_563" data-name="Group 563" transform="translate(241.049 -23.091) rotate(7)" opacity="0.22">
    <path id="Subtraction_99" data-name="Subtraction 99" d="M314,628.006a316.33,316.33,0,0,1-63.283-6.379,312.256,312.256,0,0,1-112.279-47.246A314.893,314.893,0,0,1,24.676,436.229a312.244,312.244,0,0,1-18.3-58.942,317.094,317.094,0,0,1,0-126.566,312.382,312.382,0,0,1,47.248-112.28A314.941,314.941,0,0,1,191.775,24.676a312.394,312.394,0,0,1,58.943-18.3,317.051,317.051,0,0,1,126.564,0A312.28,312.28,0,0,1,489.563,53.627,314.922,314.922,0,0,1,603.328,191.78a312.224,312.224,0,0,1,18.3,58.941,317.094,317.094,0,0,1,0,126.566,312.324,312.324,0,0,1-47.25,112.28A314.908,314.908,0,0,1,436.225,603.331a312.356,312.356,0,0,1-58.941,18.3A316.282,316.282,0,0,1,314,628.006Zm0-573.869a261.786,261.786,0,0,0-52.373,5.28,258.445,258.445,0,0,0-92.924,39.1A260.629,260.629,0,0,0,74.557,212.852a258.318,258.318,0,0,0-15.139,48.78,262.312,262.312,0,0,0,0,104.743,258.362,258.362,0,0,0,39.1,92.921,260.605,260.605,0,0,0,114.332,94.151,258.617,258.617,0,0,0,48.781,15.142,262.4,262.4,0,0,0,104.744,0,258.455,258.455,0,0,0,92.922-39.1,260.651,260.651,0,0,0,94.152-114.333,258.464,258.464,0,0,0,15.139-48.78,262.312,262.312,0,0,0,0-104.743,258.32,258.32,0,0,0-39.1-92.921A260.62,260.62,0,0,0,415.152,74.559a258.545,258.545,0,0,0-48.779-15.142A261.767,261.767,0,0,0,314,54.138Z" transform="translate(515.938 77.556)" fill="#ffa398" opacity="0.115"/>
    <path id="Subtraction_88" data-name="Subtraction 88" d="M324.828,649.657a327.2,327.2,0,0,1-65.465-6.6,323.039,323.039,0,0,1-116.15-48.876A325.815,325.815,0,0,1,25.523,451.269,323.4,323.4,0,0,1,6.594,390.3a328.176,328.176,0,0,1,0-130.929A323.065,323.065,0,0,1,55.475,143.215,325.786,325.786,0,0,1,198.389,25.527,323.1,323.1,0,0,1,259.363,6.6a328,328,0,0,1,130.93,0,323.017,323.017,0,0,1,116.15,48.876A325.782,325.782,0,0,1,624.131,198.392a323.135,323.135,0,0,1,18.93,60.974,328.081,328.081,0,0,1,0,130.929,323.095,323.095,0,0,1-48.879,116.149A325.779,325.779,0,0,1,451.268,624.131a323.187,323.187,0,0,1-60.975,18.927A327.215,327.215,0,0,1,324.828,649.657Zm0-595.524a272.666,272.666,0,0,0-54.553,5.5,269.216,269.216,0,0,0-96.795,40.731,271.508,271.508,0,0,0-98.074,119.1,269.488,269.488,0,0,0-15.771,50.813,273.315,273.315,0,0,0,0,109.109,269.148,269.148,0,0,0,40.73,96.793,271.468,271.468,0,0,0,119.1,98.073,269.206,269.206,0,0,0,50.813,15.773,273.319,273.319,0,0,0,109.105,0,269.2,269.2,0,0,0,96.793-40.73A271.494,271.494,0,0,0,574.25,430.2a269.611,269.611,0,0,0,15.771-50.812,273.22,273.22,0,0,0,0-109.109,269.151,269.151,0,0,0-40.73-96.8,271.5,271.5,0,0,0-119.1-98.075,269.339,269.339,0,0,0-50.812-15.773A272.666,272.666,0,0,0,324.828,54.134Z" transform="translate(331.871 828.846)" fill="#8f4c76" opacity="0.244"/>
    <path id="Subtraction_85" data-name="Subtraction 85" d="M259.863,519.731a261.8,261.8,0,0,1-52.373-5.28,258.442,258.442,0,0,1-92.922-39.1A260.593,260.593,0,0,1,20.422,361.018a258.207,258.207,0,0,1-15.145-48.78,262.407,262.407,0,0,1,0-104.743,258.556,258.556,0,0,1,39.1-92.921A260.615,260.615,0,0,1,158.711,20.422,258.59,258.59,0,0,1,207.49,5.28a262.386,262.386,0,0,1,104.746,0,258.439,258.439,0,0,1,92.922,39.1,260.633,260.633,0,0,1,94.148,114.333,258.312,258.312,0,0,1,15.143,48.779,262.407,262.407,0,0,1,0,104.743,258.459,258.459,0,0,1-39.1,92.922,260.608,260.608,0,0,1-114.332,94.15,258.561,258.561,0,0,1-48.779,15.142A261.8,261.8,0,0,1,259.863,519.731Zm0-465.588a207.251,207.251,0,0,0-41.461,4.18,204.632,204.632,0,0,0-73.564,30.954A206.334,206.334,0,0,0,70.3,179.789a204.624,204.624,0,0,0-11.984,38.616,207.632,207.632,0,0,0,0,82.922A204.512,204.512,0,0,0,89.27,374.889a206.314,206.314,0,0,0,90.516,74.537A204.724,204.724,0,0,0,218.4,461.414a207.716,207.716,0,0,0,82.922,0,204.624,204.624,0,0,0,73.564-30.956,206.347,206.347,0,0,0,74.537-90.515,204.793,204.793,0,0,0,11.986-38.617,207.632,207.632,0,0,0,0-82.922,204.553,204.553,0,0,0-30.955-73.562A206.311,206.311,0,0,0,339.941,70.31a204.686,204.686,0,0,0-38.617-11.987A207.251,207.251,0,0,0,259.863,54.143Z" transform="translate(53.597 489.934)" fill="#9883a1" opacity="0.11"/>
    <path id="Union_75" data-name="Union 75" d="M666.334,1885.131c3.114-2.256,6.167-4.66,9.072-7.148a142.357,142.357,0,0,0,34.328-43.65,143.56,143.56,0,0,0,14.833-80.218,142.2,142.2,0,0,0-5.733-27.541,144.345,144.345,0,0,0-27.968-50.456,142.215,142.215,0,0,0-43.649-34.322,143.594,143.594,0,0,0-80.222-14.822,142.511,142.511,0,0,0-27.545,5.734,144.593,144.593,0,0,0-48.228,26.1l.039.052c-3.9,2.967-7.914,5.848-11.936,8.565a260.009,260.009,0,1,1,32.169-405.319l-.3.32a217.414,217.414,0,0,0,63.163,40.894,216.284,216.284,0,0,0,40.758,12.648,219.044,219.044,0,0,0,87.5,0A215.755,215.755,0,0,0,780.24,1283.3a217.754,217.754,0,0,0,78.655-95.51,216.053,216.053,0,0,0,12.649-40.753,218.986,218.986,0,0,0,0-87.506,215.8,215.8,0,0,0-32.665-77.624,217.788,217.788,0,0,0-95.512-78.656,216.046,216.046,0,0,0-40.752-12.649,219.041,219.041,0,0,0-87.5,0,215.822,215.822,0,0,0-77.637,32.666A219.234,219.234,0,0,0,519.2,937.08l-.043-.049a313.457,313.457,0,0,1-83.685,52.293,311.715,311.715,0,0,1-58.837,18.265,316.4,316.4,0,0,1-126.35,0A311.7,311.7,0,0,1,138.2,960.422,314.224,314.224,0,0,1,24.633,822.508,311.873,311.873,0,0,1,6.363,763.67a316.706,316.706,0,0,1,0-126.349A311.967,311.967,0,0,1,53.529,525.237,314.415,314.415,0,0,1,191.442,411.665,311.892,311.892,0,0,1,250.281,393.4a316.71,316.71,0,0,1,126.35,0,311.78,311.78,0,0,1,112.09,47.166,315.272,315.272,0,0,1,84.01,83.707l.947-.673A314.9,314.9,0,0,0,707.718,631.43a312.383,312.383,0,0,0,58.943,18.3,317.031,317.031,0,0,0,126.565,0,312.327,312.327,0,0,0,112.281-47.248,314.914,314.914,0,0,0,113.762-138.155,312.282,312.282,0,0,0,18.294-58.942,316.989,316.989,0,0,0,0-126.565,312.259,312.259,0,0,0-47.244-112.279A314.9,314.9,0,0,0,952.167,52.773a312.284,312.284,0,0,0-58.941-18.3,317.336,317.336,0,0,0-102.621-3.935l-6.614-53.869a372.019,372.019,0,0,1,119.061,4.768A366.113,366.113,0,0,1,1034.69,36.833,369.188,369.188,0,0,1,1168.07,198.8a366.138,366.138,0,0,1,21.455,69.1,371.794,371.794,0,0,1,0,148.387,366.231,366.231,0,0,1-55.4,131.638A369.2,369.2,0,0,1,972.155,681.312a366.3,366.3,0,0,1-69.1,21.452,371.754,371.754,0,0,1-148.388,0,366.134,366.134,0,0,1-131.637-55.394,370.139,370.139,0,0,1-94.188-91.877l.643-.456-.094-.138A261.168,261.168,0,0,0,414.82,460.553a259.153,259.153,0,0,0-48.883-15.174,262.99,262.99,0,0,0-104.959,0,259.022,259.022,0,0,0-93.121,39.181,261.157,261.157,0,0,0-94.343,114.57,259.248,259.248,0,0,0-15.168,48.887A260.719,260.719,0,0,0,212.092,940.437a259.014,259.014,0,0,0,48.886,15.174,262.99,262.99,0,0,0,104.959,0A258.975,258.975,0,0,0,459.05,916.43a261.8,261.8,0,0,0,25.359-19.5l.041.047a269.831,269.831,0,0,1,69.259-42.612,268.521,268.521,0,0,1,50.707-15.74,272.642,272.642,0,0,1,108.893,0,268.685,268.685,0,0,1,96.6,40.646,270.916,270.916,0,0,1,97.875,118.858,268.538,268.538,0,0,1,15.74,50.711,272.553,272.553,0,0,1,0,108.893,268.667,268.667,0,0,1-40.647,96.6,270.888,270.888,0,0,1-118.858,97.873,268.69,268.69,0,0,1-50.711,15.741,272.645,272.645,0,0,1-108.893,0,268.8,268.8,0,0,1-96.6-40.646,273.1,273.1,0,0,1-32.853-26.12l-.442.473a206.134,206.134,0,0,0-60.41-39.274,204.738,204.738,0,0,0-38.62-11.983,207.765,207.765,0,0,0-82.92,0A204.441,204.441,0,0,0,219,1281.352a206.358,206.358,0,0,0-74.537,90.509,205.182,205.182,0,0,0-16.16,80.08,205.626,205.626,0,0,0,320.748,170.59c3.195-2.157,6.375-4.439,9.449-6.78l.182.24a198.98,198.98,0,0,1,64.717-34.582,195.909,195.909,0,0,1,75.938-8.224,197.468,197.468,0,0,1,104.384,41.171,195.693,195.693,0,0,1,27.951,26.758,198.8,198.8,0,0,1,38.47,69.4,195.805,195.805,0,0,1,8.213,75.929,197.449,197.449,0,0,1-41.189,104.382,195.965,195.965,0,0,1-26.761,27.949c-4,3.418-8.194,6.727-12.483,9.833h0Z" transform="translate(0 49.304)" fill="url(#linear-gradient)"/>
    <path id="Subtraction_84" data-name="Subtraction 84" d="M69.725,758.463v0l-26.471-47.1c8.8-4.927,17.484-10.271,25.818-15.886a370.577,370.577,0,0,0,54.48-44.825A370.389,370.389,0,0,0,168.5,596.314a366.781,366.781,0,0,0,33.934-62.354,364.26,364.26,0,0,0,21.451-68.909,368.962,368.962,0,0,0,7.48-73.977,368.987,368.987,0,0,0-7.48-73.983,364.169,364.169,0,0,0-21.451-68.91A367.153,367.153,0,0,0,168.5,185.822,370.26,370.26,0,0,0,123.553,131.5a370.457,370.457,0,0,0-54.48-44.826A367.8,367.8,0,0,0,6.543,52.824C4.424,51.93,2.221,51.025,0,50.137L20.105,0c2.518,1,5.041,2.041,7.512,3.082A422.438,422.438,0,0,1,99.336,41.907a424.107,424.107,0,0,1,62.486,51.417,423.509,423.509,0,0,1,51.561,62.317,420.813,420.813,0,0,1,38.932,71.524,418.1,418.1,0,0,1,24.607,79.043c2.813,13.755,4.963,27.821,6.393,41.811a425.848,425.848,0,0,1,2.186,43.054,425.79,425.79,0,0,1-2.186,43.048c-1.43,13.99-3.58,28.056-6.393,41.81a418.267,418.267,0,0,1-24.607,79.044A420.337,420.337,0,0,1,213.383,626.5a423.548,423.548,0,0,1-51.561,62.317,424.109,424.109,0,0,1-62.486,51.418c-9.551,6.437-19.516,12.569-29.611,18.224Z" transform="translate(965.639 0)" fill="#e57366" opacity="0.999"/>
    <path id="Subtraction_87" data-name="Subtraction 87" d="M41.188,169.313h0L0,135.864A368.44,368.44,0,0,1,142.281,28.887a365.683,365.683,0,0,1,69-21.422A370.264,370.264,0,0,1,285.365,0V53.052h-.018a316.585,316.585,0,0,0-63.367,6.389,312.752,312.752,0,0,0-112.475,47.327,316.065,316.065,0,0,0-68.318,62.542Z" transform="translate(28.634 384.369)" fill="#e6786b"/>
    <path id="Subtraction_90" data-name="Subtraction 90" d="M65.9,102.761h0L63.439,48.679a163.475,163.475,0,0,0,25.353-3.134,161.58,161.58,0,0,0,30.486-9.464,162.455,162.455,0,0,0,27.59-14.975A163.741,163.741,0,0,0,170.905,1.274c.418-.417.842-.846,1.262-1.275l38.7,37.856c-.582.595-1.148,1.167-1.682,1.7A218.071,218.071,0,0,1,177.137,66a216.5,216.5,0,0,1-36.785,19.966A215.411,215.411,0,0,1,99.7,98.582a217.891,217.891,0,0,1-33.8,4.178Z" transform="matrix(0.966, -0.259, 0.259, 0.966, 633.718, 1277.95)" fill="#bdacc4"/>
    <path id="Subtraction_161" data-name="Subtraction 161" d="M19475.133-2579.7h0a210.291,210.291,0,0,1-1.355-23.794,208.264,208.264,0,0,1,4.191-41.616,205.416,205.416,0,0,1,12.037-38.765,206.415,206.415,0,0,1,19.037-35.075,207.9,207.9,0,0,1,25.215-30.562,207.943,207.943,0,0,1,30.563-25.216,206.618,206.618,0,0,1,35.074-19.041,205.814,205.814,0,0,1,38.766-12.033,208.226,208.226,0,0,1,41.615-4.192,208.23,208.23,0,0,1,41.617,4.192,205.707,205.707,0,0,1,38.764,12.033,206.651,206.651,0,0,1,35.076,19.041c3.678,2.484,7.326,5.126,10.844,7.851l-30.58,39.558c-2.656-2.059-5.422-4.062-8.221-5.954a156.508,156.508,0,0,0-26.58-14.427,155.381,155.381,0,0,0-29.379-9.116,157.4,157.4,0,0,0-31.541-3.183,157.427,157.427,0,0,0-31.541,3.183,155.545,155.545,0,0,0-29.377,9.116,156.468,156.468,0,0,0-26.58,14.427,157.711,157.711,0,0,0-23.162,19.111A157.407,157.407,0,0,0,19550.5-2691a156.353,156.353,0,0,0-14.428,26.586,155.6,155.6,0,0,0-9.121,29.377,157.722,157.722,0,0,0-3.178,31.541,158.987,158.987,0,0,0,1.029,18.034l-49.672,5.761Z" transform="translate(10119.794 18772.553) rotate(-112)" fill="#6c716e" opacity="0.487"/>
  </g>
</svg>
