<svg xmlns="http://www.w3.org/2000/svg" width="121.372" height="117.316" viewBox="0 0 121.372 117.316">
  <g id="Group_255" data-name="Group 255" transform="translate(0.5 0.498)">
    <path id="Union_33" data-name="Union 33" d="M11420.855-4529.023h-.1a26.07,26.07,0,0,1-9.968-1.954,25.587,25.587,0,0,1-7.556-4.751.107.107,0,0,1-.022-.02l-16.832-16.443c-1.252,1.229-5.067,4.956-16.834,16.44a.1.1,0,0,1-.022.02,25.629,25.629,0,0,1-7.559,4.751,25.994,25.994,0,0,1-9.91,1.954h-.152a26.034,26.034,0,0,1-9.972-1.954,25.606,25.606,0,0,1-8.187-5.334,24.638,24.638,0,0,1-5.527-7.929c-1.074-2.278-2.025-7.23-2.025-11.252v-4.369a.8.8,0,0,1,.561-.764l14.587-4.6a.8.8,0,0,1,.713.118.8.8,0,0,1,.327.644v10.594a9,9,0,0,0,2.784,6.423,9.716,9.716,0,0,0,6.753,2.718h.044a8.652,8.652,0,0,0,5.483-1.675c6.122-5.007,22.9-22.137,23.074-22.307a.209.209,0,0,1,.014-.017,8.121,8.121,0,0,1,5.72-2.292h.241a8.106,8.106,0,0,1,5.717,2.292l23.091,22.324a8.5,8.5,0,0,0,5.481,1.678h.049a9.585,9.585,0,0,0,3.64-.7,9.551,9.551,0,0,0,3.105-2.02v0a8.983,8.983,0,0,0,2.774-5.949v-39.31a.8.8,0,0,1,.561-.764l14.6-4.6a.85.85,0,0,1,.241-.035.807.807,0,0,1,.48.158.8.8,0,0,1,.327.646v44.34c0,.069,0,.121,0,.189a23.963,23.963,0,0,1-2.028,8.549,24.5,24.5,0,0,1-5.535,7.92,25.539,25.539,0,0,1-8.187,5.346,26.108,26.108,0,0,1-9.866,1.939Zm-93.859-47.23a.8.8,0,0,1-.48-.158.8.8,0,0,1-.327-.646v-44.527a23.9,23.9,0,0,1,2.028-8.552,24.547,24.547,0,0,1,5.532-7.917,25.454,25.454,0,0,1,8.19-5.346,26,26,0,0,1,9.954-1.939h.1a26,26,0,0,1,9.968,1.951,25.615,25.615,0,0,1,7.556,4.751.1.1,0,0,1,.022.02l16.832,16.443c1.252-1.227,5.067-4.953,16.834-16.44a.075.075,0,0,1,.022-.021,25.685,25.685,0,0,1,7.556-4.751,26.015,26.015,0,0,1,9.913-1.95h.149a26.02,26.02,0,0,1,9.972,1.95,25.6,25.6,0,0,1,8.189,5.335,24.638,24.638,0,0,1,5.527,7.929c1.074,2.278,2.025,7.233,2.025,11.255v4.367a.8.8,0,0,1-.561.764l-14.587,4.6a.8.8,0,0,1-.713-.121.794.794,0,0,1-.327-.644v-10.595a8.995,8.995,0,0,0-2.787-6.423,9.708,9.708,0,0,0-6.75-2.717h-.046a8.644,8.644,0,0,0-5.481,1.675c-6.122,5.007-22.9,22.137-23.074,22.31a.035.035,0,0,0-.014.014,8.131,8.131,0,0,1-5.72,2.292h-.241a8.116,8.116,0,0,1-5.717-2.29l-23.091-22.327a8.518,8.518,0,0,0-5.484-1.678h-.046a9.621,9.621,0,0,0-3.64.7,9.643,9.643,0,0,0-3.108,2.02v0a8.968,8.968,0,0,0-2.771,5.95v39.31a.8.8,0,0,1-.561.764l-14.607,4.6a.758.758,0,0,1-.218.035Z" transform="translate(-11326.188 4645.342)" fill="#fff" stroke="rgba(0,0,0,0)" stroke-miterlimit="10" stroke-width="1"/>
  </g>
</svg>
