<svg xmlns="http://www.w3.org/2000/svg" width="119.996" height="120.001" viewBox="0 0 119.996 120.001">
  <path id="Subtraction_61" data-name="Subtraction 61" d="M20451-9731a59.615,59.615,0,0,1-23.354-4.716,59.725,59.725,0,0,1-10.189-5.532,60.449,60.449,0,0,1-8.881-7.326,60.246,60.246,0,0,1-7.324-8.88,59.969,59.969,0,0,1-5.533-10.193A59.614,59.614,0,0,1,20391-9791a59.621,59.621,0,0,1,4.715-23.354,59.739,59.739,0,0,1,5.533-10.192,60.246,60.246,0,0,1,7.324-8.88,60.412,60.412,0,0,1,8.881-7.327,59.936,59.936,0,0,1,10.189-5.531A59.615,59.615,0,0,1,20451-9851a59.624,59.624,0,0,1,23.355,4.716,59.868,59.868,0,0,1,10.191,5.531,60.357,60.357,0,0,1,8.881,7.327,60.3,60.3,0,0,1,7.326,8.88,60.088,60.088,0,0,1,5.531,10.192A59.614,59.614,0,0,1,20511-9791a59.614,59.614,0,0,1-4.715,23.354,60.008,60.008,0,0,1-5.531,10.193,60.3,60.3,0,0,1-7.326,8.88,60.369,60.369,0,0,1-8.881,7.326,59.867,59.867,0,0,1-10.191,5.532A59.624,59.624,0,0,1,20451-9731Zm-7.312-81.054a6.12,6.12,0,0,0-4.176,1.679,5.915,5.915,0,0,0-1.84,4.333v30.752a5.913,5.913,0,0,0,1.838,4.329,6.105,6.105,0,0,0,4.17,1.678h.01a5.939,5.939,0,0,0,3.455-1.117l21.641-15.375a5.943,5.943,0,0,0,2.523-4.9,5.928,5.928,0,0,0-2.523-4.885l-21.641-15.375A5.936,5.936,0,0,0,20443.684-9812.054Z" transform="translate(-20391 9851.001)" fill="#fff"/>
</svg>
