<svg xmlns="http://www.w3.org/2000/svg" xmlns:xlink="http://www.w3.org/1999/xlink" width="63.189" height="62.104" viewBox="0 0 63.189 62.104">
  <defs>
    <filter id="Union_33" x="0" y="0" width="63.189" height="62.104" filterUnits="userSpaceOnUse">
      <feOffset input="SourceAlpha"/>
      <feGaussianBlur stdDeviation="5" result="blur"/>
      <feFlood flood-color="#fff"/>
      <feComposite operator="in" in2="blur"/>
      <feComposite in="SourceGraphic"/>
    </filter>
  </defs>
  <g id="Group_302" data-name="Group 302" transform="translate(15.5 15.5)">
    <g id="Group_255" data-name="Group 255" transform="translate(0 0)">
      <g transform="matrix(1, 0, 0, 1, -15.5, -15.5)" filter="url(#Union_33)">
        <path id="Union_33-2" data-name="Union 33" d="M25.315,31.1h-.027a6.969,6.969,0,0,1-2.666-.522,6.844,6.844,0,0,1-2.02-1.271l-.006-.005-4.5-4.4c-.335.329-1.355,1.325-4.5,4.4l-.006.005a6.852,6.852,0,0,1-2.021,1.271,6.954,6.954,0,0,1-2.65.522H6.875a6.962,6.962,0,0,1-2.667-.522A6.847,6.847,0,0,1,2.02,29.154a6.589,6.589,0,0,1-1.478-2.12A8.512,8.512,0,0,1,0,24.025V22.857a.214.214,0,0,1,.15-.2l3.9-1.23a.214.214,0,0,1,.278.2v2.833a2.406,2.406,0,0,0,.745,1.718,2.6,2.6,0,0,0,1.806.727h.012a2.314,2.314,0,0,0,1.466-.448c1.637-1.339,6.124-5.92,6.17-5.965l0,0a2.172,2.172,0,0,1,1.53-.613h.065a2.168,2.168,0,0,1,1.529.613l6.175,5.97a2.273,2.273,0,0,0,1.466.449h.013a2.575,2.575,0,0,0,1.8-.727h0a2.4,2.4,0,0,0,.742-1.591V14.074a.215.215,0,0,1,.15-.2l3.905-1.231a.226.226,0,0,1,.065-.009.216.216,0,0,1,.129.042.214.214,0,0,1,.087.173V24.7c0,.018,0,.032,0,.051a6.4,6.4,0,0,1-.542,2.286,6.549,6.549,0,0,1-1.48,2.118,6.828,6.828,0,0,1-2.189,1.43,6.981,6.981,0,0,1-2.638.519ZM.216,18.474A.216.216,0,0,1,0,18.259V6.352A6.4,6.4,0,0,1,.542,4.065,6.567,6.567,0,0,1,2.022,1.948,6.808,6.808,0,0,1,4.212.519,6.95,6.95,0,0,1,6.874,0H6.9A6.954,6.954,0,0,1,9.566.522a6.852,6.852,0,0,1,2.02,1.271l.006.005,4.5,4.4,4.5-4.4.006-.005A6.867,6.867,0,0,1,22.622.522,6.956,6.956,0,0,1,25.273,0h.04a6.956,6.956,0,0,1,2.666.522,6.844,6.844,0,0,1,2.19,1.427,6.592,6.592,0,0,1,1.478,2.12,8.518,8.518,0,0,1,.542,3.01V8.247a.214.214,0,0,1-.15.2l-3.9,1.231a.215.215,0,0,1-.278-.2V6.644a2.406,2.406,0,0,0-.745-1.718A2.6,2.6,0,0,0,25.31,4.2H25.3a2.312,2.312,0,0,0-1.466.448c-1.637,1.339-6.124,5.92-6.17,5.966l0,0a2.175,2.175,0,0,1-1.53.613h-.065a2.17,2.17,0,0,1-1.529-.612L8.36,4.648A2.278,2.278,0,0,0,6.894,4.2H6.881a2.58,2.58,0,0,0-1.8.727h0a2.4,2.4,0,0,0-.741,1.591V17.029a.214.214,0,0,1-.15.2L.28,18.465a.2.2,0,0,1-.058.009Z" transform="translate(15.5 15.5)" fill="#383a55" stroke="rgba(0,0,0,0)" stroke-miterlimit="10" stroke-width="1"/>
      </g>
    </g>
  </g>
</svg>
