<svg xmlns="http://www.w3.org/2000/svg" xmlns:xlink="http://www.w3.org/1999/xlink" width="188.681" height="21.835" viewBox="0 0 188.681 21.835">
  <defs>
    <clipPath id="clip-path">
      <rect id="Rectangle_55" data-name="Rectangle 55" width="188.681" height="21.835" transform="translate(0 0)" fill="#fff"/>
    </clipPath>
  </defs>
  <g id="Group_262" data-name="Group 262" transform="translate(0 0)">
    <g id="Group_260" data-name="Group 260" transform="translate(0 0)" clip-path="url(#clip-path)">
      <path id="Path_2350" data-name="Path 2350" d="M161.085,25.056a2.833,2.833,0,0,1-2.1-.8,3.077,3.077,0,0,1-.787-2.244V15.284h5.6V12.727h-5.6V8.908h-2.96v3.819h-.016v2.556h.016V22.11a6.482,6.482,0,0,0,.644,2.943,4.643,4.643,0,0,0,1.891,1.985,6.108,6.108,0,0,0,3.051.709,5.934,5.934,0,0,0,1.6-.227,4.788,4.788,0,0,0,1.373-.607V24.19a4.248,4.248,0,0,1-1.27.634,4.774,4.774,0,0,1-1.445.231" transform="translate(-103.069 -5.915)" fill="#fff"/>
      <path id="Path_2351" data-name="Path 2351" d="M204.074,25.056a2.828,2.828,0,0,1-2.1-.8,3.072,3.072,0,0,1-.788-2.244V15.284h5.6V12.727h-5.6V8.908h-2.961v3.819h-.009v2.556h.009V22.11a6.464,6.464,0,0,0,.645,2.943,4.639,4.639,0,0,0,1.89,1.985,6.107,6.107,0,0,0,3.052.709,5.94,5.94,0,0,0,1.6-.227,4.791,4.791,0,0,0,1.372-.607V24.19a4.251,4.251,0,0,1-1.269.634,4.8,4.8,0,0,1-1.445.231" transform="translate(-131.619 -5.915)" fill="#fff"/>
      <path id="Path_2352" data-name="Path 2352" d="M21.922,19.973a6.7,6.7,0,0,0-3.738-.995,6.285,6.285,0,0,0-3.054.725,5.476,5.476,0,0,0-2.575,3.011,5.334,5.334,0,0,0-.481-1.029A5.429,5.429,0,0,0,9.952,19.7a6.77,6.77,0,0,0-3.21-.725,6.576,6.576,0,0,0-3.686.995,6.341,6.341,0,0,0-2.28,2.672A8.847,8.847,0,0,0,0,26.375v7.681H2.96V26.808a6.951,6.951,0,0,1,.428-2.472A4.127,4.127,0,0,1,4.7,22.52a3.577,3.577,0,0,1,2.258-.688,3.746,3.746,0,0,1,2.268.669,4.011,4.011,0,0,1,1.356,1.784,6.7,6.7,0,0,1,.445,2.484v7.288h2.961V26.748a6.564,6.564,0,0,1,.45-2.463A4.1,4.1,0,0,1,15.771,22.5a3.6,3.6,0,0,1,2.222-.669,3.661,3.661,0,0,1,2.278.688,4.137,4.137,0,0,1,1.341,1.826,6.871,6.871,0,0,1,.437,2.484v7.226h2.961v-7.7a8.643,8.643,0,0,0-.786-3.719,6.39,6.39,0,0,0-2.3-2.662" transform="translate(0 -12.6)" fill="#fff"/>
      <path id="Path_2353" data-name="Path 2353" d="M101.425,20.169a7.9,7.9,0,0,0-3.989-1.011,7.7,7.7,0,0,0-6.762,3.813,7.446,7.446,0,0,0-1.03,3.843,7.951,7.951,0,0,0,.958,3.869,7.561,7.561,0,0,0,2.613,2.793,6.948,6.948,0,0,0,3.776,1.046,6.391,6.391,0,0,0,3.37-.877,6.243,6.243,0,0,0,2.083-2.059v2.59h2.805V26.814a7.511,7.511,0,0,0-1.031-3.906,7.625,7.625,0,0,0-2.794-2.739m.228,9.116a4.91,4.91,0,0,1-1.736,1.776,4.706,4.706,0,0,1-2.481.666,4.655,4.655,0,0,1-2.464-.666,4.9,4.9,0,0,1-1.73-1.776,5.019,5.019,0,0,1,0-4.891,4.9,4.9,0,0,1,1.73-1.775,4.66,4.66,0,0,1,2.464-.667,4.71,4.71,0,0,1,2.481.667,4.871,4.871,0,0,1,2.372,4.225,4.853,4.853,0,0,1-.636,2.441" transform="translate(-59.525 -12.721)" fill="#fff"/>
      <path id="Path_2354" data-name="Path 2354" d="M431.324.26A1.841,1.841,0,0,0,430.35,0a1.946,1.946,0,0,0-1.677.965,1.948,1.948,0,0,0-.259.993,1.948,1.948,0,0,0,.259.988,1.939,1.939,0,0,0,1.677.969h0a1.828,1.828,0,0,0,.975-.258,1.977,1.977,0,0,0,.684-.709,1.949,1.949,0,0,0,.259-.988,1.948,1.948,0,0,0-.259-.993,1.981,1.981,0,0,0-.684-.706" transform="translate(-284.475 0)" fill="#fff"/>
      <path id="Path_2355" data-name="Path 2355" d="M249.018,19.952a7.374,7.374,0,0,0-10.3,2.84,8.1,8.1,0,0,0-.93,3.855,7.872,7.872,0,0,0,1.01,3.994,7.338,7.338,0,0,0,2.774,2.748,7.931,7.931,0,0,0,3.973,1,7.586,7.586,0,0,0,3.864-.986,6.912,6.912,0,0,0,2.677-2.874l-2.279-1.181a4.258,4.258,0,0,1-1.786,1.806,5.342,5.342,0,0,1-2.494.589,4.878,4.878,0,0,1-2.658-.721,4.722,4.722,0,0,1-1.738-1.956,5.113,5.113,0,0,1-.467-1.6h11.7V26.285a7.864,7.864,0,0,0-.874-3.7,6.682,6.682,0,0,0-2.473-2.631m-8.237,5.615a5.061,5.061,0,0,1,.724-2,4.133,4.133,0,0,1,1.5-1.414,4.4,4.4,0,0,1,2.162-.522h0a4.525,4.525,0,0,1,2.133.491,3.9,3.9,0,0,1,1.49,1.378,4.206,4.206,0,0,1,.618,2.065Z" transform="translate(-157.896 -12.6)" fill="#fff"/>
      <path id="Path_2356" data-name="Path 2356" d="M468.6,20.188a7.629,7.629,0,0,0-4.052-1.008,7.389,7.389,0,0,0-3.99,1.019A6.608,6.608,0,0,0,458.1,22.94a8.738,8.738,0,0,0-.837,3.852v7.4h2.961V27.1a6.422,6.422,0,0,1,.485-2.514,4.353,4.353,0,0,1,1.442-1.85,3.948,3.948,0,0,1,2.395-.706,4.118,4.118,0,0,1,2.457.706,4.371,4.371,0,0,1,1.473,1.862,6.377,6.377,0,0,1,.494,2.524v7.068h2.961V26.77a8.659,8.659,0,0,0-.846-3.852,6.565,6.565,0,0,0-2.486-2.73" transform="translate(-303.634 -12.733)" fill="#fff"/>
      <path id="Path_2357" data-name="Path 2357" d="M527.776.233l-.014,8.555a6.863,6.863,0,0,0-1.738-1.365,6.621,6.621,0,0,0-3.254-.822,7.777,7.777,0,0,0-3.931,1,7.226,7.226,0,0,0-2.719,2.739,7.948,7.948,0,0,0-.987,3.971,7.42,7.42,0,0,0,1.03,3.834,7.85,7.85,0,0,0,2.791,2.789,7.659,7.659,0,0,0,3.971,1.046,7.928,7.928,0,0,0,3.99-1.007,7.524,7.524,0,0,0,3.823-6.662V.233Zm-.636,16.508a4.9,4.9,0,0,1-1.736,1.775,4.928,4.928,0,0,1-4.946,0,4.9,4.9,0,0,1-1.729-1.775,4.839,4.839,0,0,1-.637-2.441,4.923,4.923,0,0,1,2.366-4.238,4.665,4.665,0,0,1,2.465-.666h0a4.711,4.711,0,0,1,2.481.666,4.982,4.982,0,0,1,1.736,6.678" transform="translate(-342.057 -0.155)" fill="#fff"/>
      <rect id="Rectangle_54" data-name="Rectangle 54" width="2.961" height="14.643" transform="translate(144.395 6.813)" fill="#fff"/>
      <path id="Path_2358" data-name="Path 2358" d="M302.9,19.393a6.067,6.067,0,0,0-3.216.8,5.187,5.187,0,0,0-1.983,2.2,7.308,7.308,0,0,0-.674,3.2v8.735h2.96V25.713a3.661,3.661,0,0,1,.86-2.553,2.989,2.989,0,0,1,2.315-.942,5.134,5.134,0,0,1,1.217.149,4.262,4.262,0,0,1,1.146.47V19.922a5.723,5.723,0,0,0-1.238-.394,7.142,7.142,0,0,0-1.387-.134" transform="translate(-197.228 -12.875)" fill="#fff"/>
      <path id="Path_2359" data-name="Path 2359" d="M357.574,19.973a6.7,6.7,0,0,0-3.737-.995,6.3,6.3,0,0,0-3.056.725,5.5,5.5,0,0,0-2.087,1.982,5.426,5.426,0,0,0-.486,1.03,5.364,5.364,0,0,0-.482-1.03A5.423,5.423,0,0,0,345.6,19.7a6.77,6.77,0,0,0-3.209-.725,6.571,6.571,0,0,0-3.686.995,6.331,6.331,0,0,0-2.281,2.672,8.83,8.83,0,0,0-.776,3.729v7.681h2.96V26.808a6.928,6.928,0,0,1,.429-2.472,4.133,4.133,0,0,1,1.308-1.816,3.577,3.577,0,0,1,2.258-.688,3.744,3.744,0,0,1,2.268.669,4,4,0,0,1,1.356,1.784,6.688,6.688,0,0,1,.444,2.484v7.288h2.962V26.748a6.57,6.57,0,0,1,.449-2.463,4.111,4.111,0,0,1,1.336-1.784,3.6,3.6,0,0,1,2.221-.669,3.662,3.662,0,0,1,2.278.688,4.128,4.128,0,0,1,1.34,1.826,6.865,6.865,0,0,1,.439,2.484v7.226h2.96v-7.7a8.658,8.658,0,0,0-.786-3.719,6.384,6.384,0,0,0-2.3-2.662" transform="translate(-222.88 -12.6)" fill="#fff"/>
    </g>
  </g>
</svg>
