<svg xmlns="http://www.w3.org/2000/svg" width="370.001" height="160.69" viewBox="0 0 370.001 160.69">
  <path id="Subtraction_51" data-name="Subtraction 51" d="M370,160.691H0v-34H.023V124.97l14.69-4.64L245.219,46.412V42.16L.023,121.146v-2.192l40.438-13,.613-4.5L159.624,63.673v3.964L369.968,0V1.966L323.8,16.855l-.648,2.46,46.82-15.408V126.691H370v34Zm-45.139-35.825h0L329.094,129l0,0a6.431,6.431,0,0,0,1.9,1.2,6.521,6.521,0,0,0,2.492.491h.061a6.536,6.536,0,0,0,2.48-.488,6.382,6.382,0,0,0,2.058-1.344,6.134,6.134,0,0,0,1.392-1.992,5.977,5.977,0,0,0,.509-2.149v-11.2a.2.2,0,0,0-.2-.2.236.236,0,0,0-.061.008l-3.671,1.158a.2.2,0,0,0-.141.192v9.884a2.247,2.247,0,0,1-.7,1.495,2.355,2.355,0,0,1-.781.508,2.4,2.4,0,0,1-.908.176h-.025a2.153,2.153,0,0,1-1.372-.422l-5.806-5.612a2.024,2.024,0,0,0-1.42-.577h-.094a2.032,2.032,0,0,0-1.421.577l0,0h0l-.033.034c-.718.731-4.371,4.433-5.767,5.575a2.167,2.167,0,0,1-1.291.423l-.088,0H316.2a2.433,2.433,0,0,1-1.7-.684,2.275,2.275,0,0,1-.7-1.615v-2.663a.2.2,0,0,0-.2-.2.191.191,0,0,0-.06.009l-3.668,1.157a.2.2,0,0,0-.141.192v1.1a8.068,8.068,0,0,0,.509,2.829,6.154,6.154,0,0,0,1.39,1.993,6.408,6.408,0,0,0,2.058,1.341,6.517,6.517,0,0,0,2.494.491h.058a6.5,6.5,0,0,0,2.486-.491,6.41,6.41,0,0,0,1.9-1.194l.005-.005c2.788-2.721,3.9-3.8,4.232-4.132Zm-8.7-23.419a6.51,6.51,0,0,0-2.475.487,6.367,6.367,0,0,0-2.059,1.345,6.13,6.13,0,0,0-1.391,1.99,5.969,5.969,0,0,0-.51,2.15v11.2a.2.2,0,0,0,.2.2h.005a.182.182,0,0,0,.054-.009l3.673-1.157a.2.2,0,0,0,.14-.193v-9.883a2.251,2.251,0,0,1,.7-1.5,2.42,2.42,0,0,1,1.683-.684h.037a2.148,2.148,0,0,1,1.367.422l5.8,5.613a2.029,2.029,0,0,0,1.42.575h.1a2.03,2.03,0,0,0,1.42-.576l0,0,.063-.063c1.3-1.317,4.446-4.488,5.739-5.545a2.157,2.157,0,0,1,1.287-.423l.091,0h.012a2.433,2.433,0,0,1,1.7.683,2.274,2.274,0,0,1,.7,1.615v2.664a.2.2,0,0,0,.2.2.207.207,0,0,0,.059-.008l3.667-1.157a.2.2,0,0,0,.14-.193v-1.1a8.083,8.083,0,0,0-.509-2.83,6.18,6.18,0,0,0-1.39-1.993,6.409,6.409,0,0,0-2.059-1.342,6.513,6.513,0,0,0-2.487-.491h-.059a6.527,6.527,0,0,0-2.492.491,6.439,6.439,0,0,0-1.9,1.2l-.005,0c-3.056,2.984-3.927,3.835-4.232,4.134l-4.232-4.135-.006,0a6.4,6.4,0,0,0-1.9-1.194,6.5,6.5,0,0,0-2.479-.491h-.08Zm-146.138-27.3L104.056,95.026l-.647,2.459,66.618-21.4Zm150.292-44.6L201.768,67.317l-.647,4.774L320.319,33.8V29.545ZM112.658,72.091v0h0l.647-2.457,65.971-20.884v1.939Z" fill="#101224"/>
</svg>
