<svg xmlns="http://www.w3.org/2000/svg" width="370.005" height="156.293" viewBox="0 0 370.005 156.293">
  <path id="Subtraction_57" data-name="Subtraction 57" d="M370,156.293H0v-36H.05v-4.181l12.243-3.934,13.375,12.263L29.611,106.6l14.73-4.734,2.072-9.359,7.016,6.434,10.337-3.321,18.492,16.961,5.456-24.667,6.132-1.971,2.928-13.228,9.92,9.1,16.333-5.252,1.4-6.317,4.74,4.346,43.073-13.852,6.338,5.8,1.882-8.446,26.858-8.635,13.364,12.217,3.955-17.788,12.817-4.122,5.326-24.532,18.311,16.931,12.542-4.034,4.9,4.5,1.452-6.54,14.026-4.511v.058l1.238-.4,13.377,12.271,3.947-17.835,34.15-10.984,18.5,16.956L370.005,0V140.11l0,16.177H370v.005Zm-45.121-35.825h0l4.231,4.133,0,0a6.433,6.433,0,0,0,1.9,1.2,6.523,6.523,0,0,0,2.493.491h.06a6.535,6.535,0,0,0,2.48-.488,6.381,6.381,0,0,0,2.058-1.344,6.133,6.133,0,0,0,1.392-1.992,5.978,5.978,0,0,0,.509-2.149v-11.2a.2.2,0,0,0-.2-.2.232.232,0,0,0-.061.008l-3.671,1.158a.2.2,0,0,0-.141.192v9.884a2.247,2.247,0,0,1-.7,1.495,2.355,2.355,0,0,1-.781.508,2.4,2.4,0,0,1-.907.176h-.026a2.153,2.153,0,0,1-1.372-.422l-5.806-5.612a2.024,2.024,0,0,0-1.42-.577h-.094a2.032,2.032,0,0,0-1.421.577l0,0h0l-.033.034c-.718.731-4.371,4.433-5.767,5.575a2.166,2.166,0,0,1-1.291.423l-.088,0h-.012a2.433,2.433,0,0,1-1.7-.684,2.275,2.275,0,0,1-.7-1.615v-2.663a.2.2,0,0,0-.2-.2.192.192,0,0,0-.06.01l-3.668,1.156a.2.2,0,0,0-.141.192v1.1a8.067,8.067,0,0,0,.509,2.829,6.153,6.153,0,0,0,1.39,1.993A6.406,6.406,0,0,0,313.7,125.8a6.516,6.516,0,0,0,2.493.491h.059a6.5,6.5,0,0,0,2.485-.491,6.41,6.41,0,0,0,1.9-1.194l.005-.005c2.835-2.767,3.9-3.81,4.232-4.132Zm-8.7-23.419a6.511,6.511,0,0,0-2.475.487,6.367,6.367,0,0,0-2.059,1.345,6.129,6.129,0,0,0-1.391,1.99,5.967,5.967,0,0,0-.51,2.15v11.2a.2.2,0,0,0,.2.2h.005a.183.183,0,0,0,.054-.009l3.673-1.157a.2.2,0,0,0,.14-.193v-9.883a2.251,2.251,0,0,1,.7-1.5A2.42,2.42,0,0,1,316.2,101h.037a2.148,2.148,0,0,1,1.367.422l5.805,5.613a2.029,2.029,0,0,0,1.42.575h.1a2.03,2.03,0,0,0,1.42-.576l0,0,.064-.065c1.294-1.314,4.442-4.485,5.737-5.544a2.157,2.157,0,0,1,1.287-.423l.091,0h.012a2.432,2.432,0,0,1,1.7.683,2.274,2.274,0,0,1,.7,1.615v2.664a.2.2,0,0,0,.2.2.208.208,0,0,0,.059-.008l3.668-1.157a.2.2,0,0,0,.14-.193v-1.1a8.084,8.084,0,0,0-.509-2.83,6.18,6.18,0,0,0-1.39-1.993,6.409,6.409,0,0,0-2.059-1.342,6.516,6.516,0,0,0-2.487-.491H333.5a6.527,6.527,0,0,0-2.492.49,6.439,6.439,0,0,0-1.9,1.2l-.005,0c-3,2.93-3.921,3.828-4.232,4.134l-4.232-4.135-.006,0a6.4,6.4,0,0,0-1.9-1.194,6.5,6.5,0,0,0-2.479-.491h-.08Z" fill="#101224"/>
</svg>
