<svg xmlns="http://www.w3.org/2000/svg" width="369.993" height="142.23" viewBox="0 0 369.993 142.23">
  <path id="Subtraction_46" data-name="Subtraction 46" d="M369.993,142.231H0V107.2L4.757,105.7,7.1,107.882l4.958-1.56.67-3.121,2.506-.785L16.8,95.359,31.187,90.84l5.351,4.887,5.573-1.751,6.116,5.672,10.68-3.353,1.741-8.141,3.01-.944,2.569-11.54,14.384-4.516,8.751,7.984L103.3,74.758l.99-4.618,6.653-2.09,3.468,3.218,14.333-4.5,1.795-8.392,10.683-3.356,6.3,5.851,16.384-5.147,7.173,6.655,10.681-3.357,2.043-9.545,13.585-4.268,3.344,3.1,10.683-3.355.95-4.45.431-.135,0-.021,14.4-4.539,5.367,4.9,5.524-1.738,6.121,5.692L254.907,41.3l1.748-8.15,3-.947,2.571-11.546,14.4-4.537,8.76,8.007L299.3,19.76l.993-4.626,6.656-2.1,3.476,3.232,14.319-4.5,1.8-8.4L337.233,0l6.31,5.866L359.891.733,367.074,7.4l2.918-.92V142.23Zm-45.13-35.824h0l4.231,4.133,0,0a6.433,6.433,0,0,0,1.9,1.2,6.522,6.522,0,0,0,2.492.491h.061a6.536,6.536,0,0,0,2.48-.488,6.382,6.382,0,0,0,2.058-1.344,6.133,6.133,0,0,0,1.392-1.992,5.979,5.979,0,0,0,.509-2.149v-11.2a.2.2,0,0,0-.2-.2.235.235,0,0,0-.061.008l-3.671,1.158a.2.2,0,0,0-.141.192V106.1a2.247,2.247,0,0,1-.7,1.495,2.355,2.355,0,0,1-.781.508,2.4,2.4,0,0,1-.908.176h-.025a2.154,2.154,0,0,1-1.372-.422l-5.806-5.612a2.024,2.024,0,0,0-1.42-.577h-.094a2.032,2.032,0,0,0-1.421.577l0,0h0l-.033.034c-.718.731-4.371,4.433-5.767,5.575a2.167,2.167,0,0,1-1.291.423l-.088,0H316.2a2.433,2.433,0,0,1-1.7-.684,2.275,2.275,0,0,1-.7-1.615V103.32a.2.2,0,0,0-.2-.2.191.191,0,0,0-.06.009l-3.668,1.157a.2.2,0,0,0-.141.192v1.1a8.066,8.066,0,0,0,.509,2.829,6.153,6.153,0,0,0,1.39,1.993,6.405,6.405,0,0,0,2.058,1.341,6.515,6.515,0,0,0,2.493.491h.059a6.5,6.5,0,0,0,2.485-.491,6.411,6.411,0,0,0,1.9-1.194l.005-.005c2.837-2.768,3.9-3.811,4.232-4.132ZM42.07,102.034h0l-3.42,1.075-.779,3.473,2.641,2.4,3.419-1.076.78-3.477-2.641-2.4Zm274.1-19.047a6.51,6.51,0,0,0-2.475.487,6.367,6.367,0,0,0-2.059,1.345,6.13,6.13,0,0,0-1.391,1.99,5.969,5.969,0,0,0-.51,2.15v11.2a.2.2,0,0,0,.2.2h.005a.184.184,0,0,0,.054-.009l3.673-1.157a.2.2,0,0,0,.14-.193V89.114a2.251,2.251,0,0,1,.7-1.5,2.42,2.42,0,0,1,1.683-.684h.037a2.148,2.148,0,0,1,1.367.422l5.8,5.613a2.029,2.029,0,0,0,1.42.575h.1a2.03,2.03,0,0,0,1.42-.576l0,0,.045-.045.021-.021c1.294-1.314,4.442-4.485,5.736-5.542a2.157,2.157,0,0,1,1.287-.423l.091,0h.012a2.432,2.432,0,0,1,1.7.683,2.274,2.274,0,0,1,.7,1.615V91.9a.2.2,0,0,0,.2.2.208.208,0,0,0,.059-.008l3.668-1.157a.2.2,0,0,0,.14-.193v-1.1a8.084,8.084,0,0,0-.509-2.831,6.178,6.178,0,0,0-1.39-1.993,6.408,6.408,0,0,0-2.059-1.342,6.514,6.514,0,0,0-2.487-.491h-.059a6.528,6.528,0,0,0-2.492.491,6.439,6.439,0,0,0-1.9,1.2l0,0c-2.948,2.878-3.916,3.823-4.232,4.134l-4.232-4.135-.006,0a6.4,6.4,0,0,0-1.9-1.194,6.5,6.5,0,0,0-2.479-.491h-.08Zm-154.4-22.135-7.759,2.435-1.723,8.043,6.043,5.6,7.762-2.438,1.721-8.039-6.043-5.6Zm76.31-13.821-3.423,1.075-.782,3.482,2.637,2.4,3.422-1.081.787-3.482ZM358.539,5.965h0l-4.713,1.478-1.046,4.889,3.659,3.407,4.71-1.484,1.054-4.9-3.664-3.395ZM37.285,91.545h0l-3.372-3.13.959-4.489,4.335-1.364,3.375,3.13-.961,4.491-4.336,1.362ZM91.249,74.13h0l-6.042-5.606,1.724-8.04,7.758-2.44,6.039,5.606-1.719,8.04L91.25,74.13Zm108.72-31.807h0l-2.641-2.4.78-3.477,3.422-1.073,2.641,2.4-.782,3.473-3.417,1.075Zm87.274-23.176v0h0l-6.041-5.61,1.726-8.06L290.7,3.029l6.039,5.612L295.006,16.7Z" fill="#101224"/>
</svg>
